<?xml version="1.0" encoding="UTF-8"?>
<svg width="700pt" height="700pt" version="1.1" viewBox="0 0 700 700" xmlns="http://www.w3.org/2000/svg">
 <path d="m350 0c75.246 0 145.84 29.855 197.99 82.012 9.4102 9.4062 18.125 19.453 26.082 30.059l-0.070312-56.07c0-14.359 10.809-26.195 24.734-27.812l3.2656-0.1875c14.359 0 26.195 10.809 27.812 24.734l0.1875 3.2656v140c0 14.359-10.809 26.195-24.734 27.812l-3.2656 0.1875h-140c-15.465 0-28-12.535-28-28 0-14.359 10.809-26.195 24.734-27.812l3.2656-0.1875 82.043 0.007812c-9.7891-16.918-21.773-32.523-35.652-46.398-41.754-41.758-98.148-65.609-158.39-65.609-123.71 0-224 100.29-224 224s100.29 224 224 224c60.242 0 116.64-23.852 158.39-65.609 20.805-20.801 37.359-45.492 48.625-72.656 5.6016-13.508 9.8672-27.559 12.719-41.988 3.0039-15.172 17.734-25.035 32.902-22.035 15.172 3 25.035 17.73 22.035 32.902-3.5742 18.066-8.9141 35.66-15.926 52.57-14.09 33.977-34.777 64.828-60.758 90.805-52.152 52.156-122.74 82.012-197.99 82.012-154.64 0-280-125.36-280-280s125.36-280 280-280z"/>
</svg>
