<svg width="25" height="25" viewBox="0 0 25 25" fill="none" xmlns="http://www.w3.org/2000/svg">
<path d="M12.5 0C15.8592 0 19.0107 1.33281 21.3388 3.66123C21.7589 4.08115 22.148 4.52966 22.5032 5.00314L22.5001 2.50003C22.5001 1.85901 22.9826 1.33062 23.6042 1.25843L23.75 1.25006C24.3911 1.25006 24.9194 1.7326 24.9916 2.35425L25 2.50004V8.75C25 9.39103 24.5175 9.91942 23.8958 9.9916L23.75 9.99997H17.5C16.8096 9.99997 16.25 9.44038 16.25 8.74998C16.25 8.10896 16.7326 7.58057 17.3542 7.50838L17.5 7.50001L21.1626 7.50036C20.7256 6.74509 20.1906 6.04845 19.571 5.42903C17.707 3.56484 15.1895 2.50007 12.5001 2.50007C6.97734 2.50007 2.50012 6.97728 2.50012 12.5C2.50012 18.0228 6.97734 22.5 12.5001 22.5C15.1895 22.5 17.7072 21.4352 19.571 19.571C20.4998 18.6424 21.2389 17.5401 21.7418 16.3275C21.9919 15.7244 22.1823 15.0971 22.3096 14.453C22.4437 13.7757 23.1013 13.3354 23.7784 13.4693C24.4558 13.6032 24.8961 14.2608 24.7621 14.9381C24.6026 15.7446 24.3642 16.5301 24.0512 17.285C23.4221 18.8018 22.4986 20.1791 21.3388 21.3388C19.0106 23.6671 15.8593 25 12.5 25C5.59641 25 0 19.4036 0 12.5001C0 5.59653 5.59641 0.000129999 12.5 0.000129999L12.5 0Z" fill="black"/>
</svg>
