<svg width="25" height="25" viewBox="0 0 25 25" fill="none" xmlns="http://www.w3.org/2000/svg">
<path d="M21.3394 3.66098C16.4574 -1.22033 8.54286 -1.22033 3.66106 3.66098C-1.22035 8.54291 -1.22035 16.4579 3.66106 21.339C8.54308 26.2203 16.4582 26.2203 21.3394 21.339C26.2202 16.4577 26.2202 8.54269 21.3394 3.66098V3.66098ZM5.50373 5.50468C9.00308 2.0054 14.4665 1.68715 18.3372 4.52661L4.52547 18.3386C1.68618 14.4672 2.00421 9.00485 5.50356 5.50485L5.50373 5.50468ZM19.4957 19.4963C15.9956 22.9956 10.5329 23.3138 6.66224 20.4751L20.4739 6.66255C23.3139 10.5337 22.9952 15.9968 19.4958 19.4963L19.4957 19.4963Z" fill="black"/>
</svg>
