<svg width="25" height="23" viewBox="0 0 25 23" fill="none" xmlns="http://www.w3.org/2000/svg">
<path d="M24.6848 4.31427H24.2901L24.2899 1.61136C24.2899 0.987583 23.7637 0.467809 23.132 0.467809H20.6055C19.9739 0.467809 19.4476 0.987536 19.4476 1.61136V4.31408H19.0529C18.8686 4.31408 18.7372 4.44407 18.7372 4.62589V11.1231C18.7372 11.3051 18.8688 11.4349 19.0529 11.4349H20.7634V16.8145C20.7634 19.0236 18.9475 20.8167 16.7108 20.8167L10.0528 20.8169C7.81579 20.8169 6.00016 19.0236 6.00016 16.8147L5.99998 14.0858H7.68421C8.84217 14.0858 9.78956 13.1503 9.78956 12.0067V5.84739C9.78956 5.66538 9.65794 5.53558 9.47382 5.53558H8.63161V0H1.13149V5.56157H0.315738C0.131435 5.56157 0 5.69155 0 5.87338V12.0067C0 13.1503 0.947383 14.0858 2.10534 14.0858H3.8158V16.8147C3.8158 20.2192 6.63173 23 10.0791 23L16.7107 22.9998C20.1581 22.9998 22.974 20.2189 22.974 16.8145L22.9738 11.4089H24.6843C24.8686 11.4089 25 11.2789 25 11.0971V4.5999C25.0002 4.44382 24.8689 4.31427 24.6848 4.31427ZM2.23707 1.06569H7.55294V5.53574H2.23707V1.06569ZM20.1058 1.61136C20.1058 1.32547 20.3426 1.11753 20.6058 1.11753H23.1323C23.4218 1.11753 23.6323 1.35138 23.6323 1.61136V4.31408L20.1058 4.31427L20.1058 1.61136Z" fill="black"/>
<path d="M20.7374 1.9493H21.0795V3.58664H20.7374V1.9493Z" fill="black"/>
<path d="M21.3953 1.9493H21.7374V3.58664H21.3953V1.9493Z" fill="black"/>
<path d="M22.0268 1.9493H22.369V3.58664H22.0268V1.9493Z" fill="black"/>
<path d="M22.6584 1.9493H23.0006V3.58664H22.6584V1.9493Z" fill="black"/>
<path d="M3.52657 2.54699H4.44773V4.39228H3.52657V2.54699Z" fill="black"/>
<path d="M5.3687 2.54699H6.28986V4.39228H5.3687V2.54699Z" fill="black"/>
</svg>
