<?xml version="1.0" encoding="UTF-8"?>
<svg width="700pt" height="700pt" version="1.1" viewBox="0 0 700 700" xmlns="http://www.w3.org/2000/svg">
 <g>
  <path d="m402.5 472.5c0 28.996-23.504 52.5-52.5 52.5s-52.5-23.504-52.5-52.5 23.504-52.5 52.5-52.5 52.5 23.504 52.5 52.5"/>
  <path d="m280 227.5c0 28.996-23.504 52.5-52.5 52.5s-52.5-23.504-52.5-52.5 23.504-52.5 52.5-52.5 52.5 23.504 52.5 52.5"/>
  <path d="m525 227.5c0 28.996-23.504 52.5-52.5 52.5s-52.5-23.504-52.5-52.5 23.504-52.5 52.5-52.5 52.5 23.504 52.5 52.5"/>
  <path d="m350 77c10.5 0 17.5 7 17.5 17.5v378c0 10.5-7 17.5-17.5 17.5s-17.5-7-17.5-17.5v-378c0-8.75 7-17.5 17.5-17.5z"/>
  <path d="m413 98-59.5-59.5c-1.75-1.75-5.25-1.75-7 0l-59.5 59.5c-3.5 3.5 0 7 3.5 7h119c3.5 0 5.25-5.25 3.5-7z"/>
  <path d="m437.5 350h-175c-29.75 0-52.5-22.75-52.5-52.5v-35c0-10.5 7-17.5 17.5-17.5s17.5 7 17.5 17.5v35c0 10.5 7 17.5 17.5 17.5h175c10.5 0 17.5-7 17.5-17.5v-35c0-10.5 7-17.5 17.5-17.5s17.5 7 17.5 17.5v35c0 29.75-22.75 52.5-52.5 52.5z"/>
 </g>
</svg>
