<svg width="25" height="20" viewBox="0 0 25 20" fill="none" xmlns="http://www.w3.org/2000/svg">
<path d="M24.4472 5.00002C21.2631 1.78202 17.0262 0 12.4999 0C7.97364 0 3.73682 1.78192 0.552628 5.00002C-0.184209 5.74471 -0.184209 6.91493 0.552628 7.65961C0.921038 8.03195 1.39482 8.21822 1.86841 8.21822C2.342 8.21822 2.81577 8.03196 3.18419 7.65961C5.65772 5.13286 8.97363 3.74983 12.4999 3.74983C16.0262 3.74983 19.342 5.13286 21.8157 7.65942C22.5525 8.40411 23.7104 8.40411 24.4472 7.65942C25.1843 6.91474 25.1843 5.71816 24.4472 5.00002Z" fill="black"/>
<path d="M5.49997 10.0266C4.76313 10.7713 4.76313 11.9416 5.49997 12.6862C5.86838 13.0586 6.34217 13.2448 6.81575 13.2448C7.28934 13.2448 7.76312 13.0586 8.13154 12.6862C10.5526 10.2394 14.4736 10.2394 16.8683 12.6597C17.5789 13.4044 18.7631 13.4044 19.4999 12.6597C20.2367 11.915 20.2367 10.7448 19.4999 10.0001C15.6315 6.11702 9.36837 6.11702 5.49997 10.0266Z" fill="black"/>
<path d="M15.421 17.0745C15.421 18.6902 14.125 20 12.5261 20C10.9275 20 9.63152 18.6902 9.63152 17.0745C9.63152 15.4587 10.9275 14.1489 12.5261 14.1489C14.125 14.1489 15.421 15.4587 15.421 17.0745Z" fill="black"/>
</svg>
